<?xml version="1.0" encoding="UTF-8" standalone="no"?>
<svg width="71px" height="71px" viewBox="0 0 71 71" version="1.1" xmlns="http://www.w3.org/2000/svg" xmlns:xlink="http://www.w3.org/1999/xlink">
    <!-- Generator: Sketch 3.8.3 (29802) - http://www.bohemiancoding.com/sketch -->
    <title>play_active</title>
    <desc>Created with Sketch.</desc>
    <defs>
        <path d="M32.0001847,21.2686311 C29.7909437,19.6080575 28,20.5009397 28,23.2676681 L28,47.181267 C28,49.9458783 29.8034329,50.8521812 32.0132339,49.2165399 L46.727468,38.32542 C48.9439159,36.6848589 48.9562772,34.0136604 46.7405173,32.3481868 L32.0001847,21.2686311 Z" id="path-1"></path>
        <filter x="-50%" y="-50%" width="200%" height="200%" filterUnits="objectBoundingBox" id="filter-2">
            <feGaussianBlur stdDeviation="0.5" in="SourceAlpha" result="shadowBlurInner1"></feGaussianBlur>
            <feOffset dx="0" dy="1" in="shadowBlurInner1" result="shadowOffsetInner1"></feOffset>
            <feComposite in="shadowOffsetInner1" in2="SourceAlpha" operator="arithmetic" k2="-1" k3="1" result="shadowInnerInner1"></feComposite>
            <feColorMatrix values="0 0 0 0 0   0 0 0 0 0   0 0 0 0 0  0 0 0 0.3 0" type="matrix" in="shadowInnerInner1"></feColorMatrix>
        </filter>
    </defs>
    <g id="Page-1" stroke="none" stroke-width="1" fill="none" fill-rule="evenodd">
        <g id="iPhone-6-Copy" transform="translate(-107.000000, -120.000000)">
            <g id="play_active" transform="translate(107.000000, 120.000000)">
                <path d="M35.5,71 C55.1061086,71 71,55.1061086 71,35.5 C71,15.8938914 55.1061086,0 35.5,0 C15.8938914,0 0,15.8938914 0,35.5 C0,55.1061086 15.8938914,71 35.5,71 Z" id="Oval-1-Copy-2" fill="#FFFFFF"></path>
                <g id="Path-2-Copy">
                    <use fill="#3EDCFE" fill-rule="evenodd" xlink:href="#path-1"></use>
                    <use fill="black" fill-opacity="1" filter="url(#filter-2)" xlink:href="#path-1"></use>
                </g>
            </g>
        </g>
    </g>
</svg>