<?xml version="1.0" encoding="UTF-8" standalone="no"?>
<svg width="33px" height="33px" viewBox="0 0 33 33" version="1.1" xmlns="http://www.w3.org/2000/svg" xmlns:xlink="http://www.w3.org/1999/xlink">
    <!-- Generator: Sketch 3.8.3 (29802) - http://www.bohemiancoding.com/sketch -->
    <title>previous_active</title>
    <desc>Created with Sketch.</desc>
    <defs>
        <path d="M15.3136356,13.8769415 L15.3136356,12.5364234 C15.3136356,10.3272618 16.7371923,9.62178962 18.4932384,10.9605782 L22.4509653,13.9779018 C24.2068747,15.316586 24.2007053,17.4754638 22.4368801,18.7996572 L18.5073237,21.7497754 C16.7481609,23.0704686 15.3136356,22.3566073 15.3136356,20.1475034 L15.3136356,18.8885019 L11.5024203,21.7497754 C9.74325744,23.0704686 8.30873217,22.3566073 8.30873217,20.1475034 L8.30873217,12.5364234 C8.30873217,10.3272618 9.73228885,9.62178962 11.488335,10.9605782 L15.3136356,13.8769415 Z" id="path-1"></path>
        <filter x="-50%" y="-50%" width="200%" height="200%" filterUnits="objectBoundingBox" id="filter-2">
            <feGaussianBlur stdDeviation="0.5" in="SourceAlpha" result="shadowBlurInner1"></feGaussianBlur>
            <feOffset dx="0" dy="1" in="shadowBlurInner1" result="shadowOffsetInner1"></feOffset>
            <feComposite in="shadowOffsetInner1" in2="SourceAlpha" operator="arithmetic" k2="-1" k3="1" result="shadowInnerInner1"></feComposite>
            <feColorMatrix values="0 0 0 0 0   0 0 0 0 0   0 0 0 0 0  0 0 0 0.3 0" type="matrix" in="shadowInnerInner1"></feColorMatrix>
        </filter>
    </defs>
    <g id="Page-1" stroke="none" stroke-width="1" fill="none" fill-rule="evenodd">
        <g id="iPhone-6-Copy" transform="translate(-33.000000, -264.000000)">
            <g id="previous_active" transform="translate(33.000000, 264.000000)">
                <path d="M16.5,33 C25.6126984,33 33,25.6126984 33,16.5 C33,7.38730163 25.6126984,0 16.5,0 C7.38730163,0 0,7.38730163 0,16.5 C0,25.6126984 7.38730163,33 16.5,33 Z" id="Oval-1" fill="#FFFFFF"></path>
                <g id="Combined-Shape" transform="translate(16.036283, 16.347581) scale(-1, 1) translate(-16.036283, -16.347581) ">
                    <use fill="#3EDCFE" fill-rule="evenodd" xlink:href="#path-1"></use>
                    <use fill="black" fill-opacity="1" filter="url(#filter-2)" xlink:href="#path-1"></use>
                </g>
            </g>
        </g>
    </g>
</svg>